<svg version="1.1" id="Layer_1" xmlns="http://www.w3.org/2000/svg" xmlns:xlink="http://www.w3.org/1999/xlink" x="0px" y="0px"
	 width="100%" height="100%" viewBox="0 0 756.076 339.034" enable-background="new 0 0 756.076 339.034"
	 xml:space="preserve">
<path fill="none" stroke="#000000" stroke-width="10" stroke-miterlimit="10" d="M372.104,141.92
	c0,0-2.001-108.319-139.442-127.017c0,0-111.271-7.56-137.401,127.017c0,0-7.492,69.834,47.234,114.06
	C142.495,255.98,214.608,246.49,372.104,141.92z"/>
<g>
	<g>
		<path fill="none" stroke="#000000" stroke-width="10" stroke-miterlimit="10" d="M347.389,76.606
			c53.738-31.912,73.998,0.174,73.998,0.174c2.216,17.729-17.697,40.893-49.284,65.14c-94.758,72.741-294.579,155.23-317.183,129.97
			c-30.14-33.687,41.3-79.695,41.3-79.695v-23.19c0,0-129.725,67.513-67.673,120.701c0,0,20.764,41.99,154.812-9.118
			c25.898-9.874,56.024-23.223,91.046-41.021c0,0,41.358-19.184,85.097-46.232c49.547-30.64,102.146-71.372,101.142-105.742
			c0,0,27.017-103.435-123.934-25.123L347.389,76.606z"/>
	</g>
	<path fill="none" stroke="#000000" stroke-width="10" stroke-miterlimit="10" d="M725.362,80.797
		c-128.806-30.56-200.444,4.825-200.444,4.825l102.941,229.281L725.362,80.797z"/>
	<path fill="none" stroke="#000000" stroke-width="10" stroke-miterlimit="10" d="M544.368,128.947c0,0,46.247-21.912,54.325,19.022
		c0,0,8.097,26.814-27.727,40.219L544.368,128.947z"/>
	
		<ellipse transform="matrix(-0.9973 0.0735 -0.0735 -0.9973 1325.6179 159.9225)" fill="none" stroke="#000000" stroke-width="10" stroke-miterlimit="10" cx="659.868" cy="104.338" rx="32.814" ry="28.844"/>
	
		<ellipse transform="matrix(-0.9973 0.0735 -0.0735 -0.9973 1306.3521 304.0617)" fill="none" stroke="#000000" stroke-width="10" stroke-miterlimit="10" cx="647.585" cy="176.052" rx="27.345" ry="26.09"/>
	<path fill="none" stroke="#000000" stroke-width="10" stroke-miterlimit="10" d="M602.578,258.594c0,0,31.87-14.629,38.187,25.323"
		/>
	<path fill="none" stroke="#000000" stroke-width="10" stroke-miterlimit="10" d="M524.917,85.623c0,0-27.953-20.027-14.641-40.692
		c0,0,93.188-47.377,223.355,0c0,0,16,12.523-8.271,35.867"/>
	<path fill="none" stroke="#000000" stroke-width="10" stroke-miterlimit="10" d="M590.152,85.623c0,0-17.75,8.559-8.876,18.716"/>
	<path fill="none" stroke="#000000" stroke-width="10" stroke-miterlimit="10" d="M609.38,202.151c0,0,23.208,15.887,10.865,23.282"
		/>
</g>
<g>
	<path fill="none" d="M372.104,185.349c0,0-3.965,46.343-68.424,84.6c0,0-49.458,28.257-120.32,10.639
		C183.36,280.587,245.685,259.055,372.104,185.349z"/>
	<path fill="none" stroke="#000000" stroke-width="10" stroke-miterlimit="10" d="M372.104,185.349c0,0-3.965,46.343-68.424,84.6
		c0,0-49.458,28.257-120.32,10.639C183.36,280.587,245.685,259.055,372.104,185.349z"/>
</g>
</svg>
