<?xml version="1.0" encoding="utf-8"?>
<!-- Generator: Adobe Illustrator 16.0.0, SVG Export Plug-In . SVG Version: 6.00 Build 0)  -->
<!DOCTYPE svg PUBLIC "-//W3C//DTD SVG 1.1//EN" "http://www.w3.org/Graphics/SVG/1.1/DTD/svg11.dtd">
<svg version="1.1" id="Layer_2" xmlns="http://www.w3.org/2000/svg" xmlns:xlink="http://www.w3.org/1999/xlink" x="0px" y="0px"
	 width="694px" height="404.667px" viewBox="0 0 694 404.667" enable-background="new 0 0 694 404.667" xml:space="preserve">
<path fill="none" stroke="#000000" stroke-miterlimit="10" d="M4.926,110c0,0-3.293-11.058,19.986-17.265
	c0,0,79.92-19.93,84.575-21.305c0,0,115.009-37.02,122.974-41.09c0,0,76.023-24.008,115.238-24.355c0,0,73.228,0.685,120.758,22.931
	c47.533,22.248,64.936,30.093,103.731,44.417c0,0,76.898,25.987,89.571,26.542c0,0,29.674,7.413,29.125,20.751
	c0,0-131.947-37.842-141.356-46.425c0,0-113.778-49.661-133.129-51.489c0,0-76.834-18.653-148.613,6.65
	c0,0-53.189,16.472-142.236,49.262L4.926,110z"/>
<path fill="none" stroke="#000000" stroke-miterlimit="10" d="M4.926,110c0,0,2.425,172.347,0.431,173.03
	c0,0,62.807,15.444,72.841,19.355c0,0,80.281,31.289,112.427,47.672c0,0,87.625,32.56,115.659,36.311
	c0,0,61.458,13.79,125.986-2.114c0,0,101.044-33.23,143.526-54.274c0,0,109.688-35.64,113.723-31.676
	c0,0-1.98-178.984,1.366-177.678c0,0-140.638-40.331-148.218-49.398c0,0-109.022-47.764-122.475-47.847
	c0,0-75.194-21.305-172.924,12.59c0,0-56.016,18.932-76.117,26.14c0,0-96.855,33.713-119.041,37.12L4.926,110z"/>
<path fill="none" stroke="#000000" stroke-miterlimit="10" d="M5.357,283.031c0,0-3.738,10.864,10.788,13.736
	c0,0,112.275,30.506,150.485,54.168c0,0,109.138,52.536,181.775,48.893c0,0,71.247,8.87,144.461-23.78
	c0,0,134.529-53.693,154.011-55.866l30.424-8.771l8.978-2.579c0,0,7.641-3.063,3.24-10.527c0,0-97.573,22.38-124.23,36.607
	c0,0-124.467,49.775-129.671,48.231c0,0-78.242,23.361-180.419-10.612c0,0-83.994-27.611-124.499-49.016
	C130.699,323.515,50.762,290.798,5.357,283.031z"/>
<g>
	<g>
		<circle fill="none" stroke="#000000" stroke-miterlimit="10" cx="97.571" cy="203.247" r="64.673"/>
		<circle fill="none" stroke="#000000" stroke-miterlimit="10" cx="97.912" cy="203.237" r="73"/>
	</g>
</g>
<g>
	<g>
		<circle fill="none" stroke="#000000" stroke-miterlimit="10" cx="601.643" cy="206.751" r="64.674"/>
		<circle fill="none" stroke="#000000" stroke-miterlimit="10" cx="601.985" cy="206.742" r="73"/>
	</g>
</g>
<g>
	<polygon fill="none" stroke="#000000" stroke-miterlimit="10" points="493.507,202.63 496.242,198.104 504.745,198.12 
		506.626,202.654 500.052,209.911 	"/>
	<g>
		<g>
			
				<ellipse transform="matrix(-1 0.0089 -0.0089 -1 703.2749 416.2291)" fill="none" stroke="#000000" stroke-miterlimit="10" cx="350.716" cy="209.671" rx="138.851" ry="107.705"/>
			
				<ellipse transform="matrix(-1 0.0089 -0.0089 -1 703.8253 416.473)" fill="none" stroke="#000000" stroke-miterlimit="10" cx="350.99" cy="209.795" rx="167.323" ry="129.789"/>
		</g>
		<polygon fill="none" stroke="#000000" stroke-miterlimit="10" points="344.709,91.358 347.445,86.832 355.948,86.848 
			357.829,91.382 351.255,98.639 		"/>
		<polygon fill="none" stroke="#000000" stroke-miterlimit="10" points="347.275,329.364 350.011,324.837 358.514,324.853 
			360.395,329.387 353.82,336.644 		"/>
		<polygon fill="none" stroke="#000000" stroke-miterlimit="10" points="190.496,208.078 193.232,203.551 201.735,203.567 
			203.615,208.101 197.042,215.358 		"/>
		<polygon fill="none" stroke="#000000" stroke-miterlimit="10" points="451.647,125.554 454.383,121.027 462.886,121.043 
			464.767,125.578 458.192,132.834 		"/>
		<polygon fill="none" stroke="#000000" stroke-miterlimit="10" points="231.647,125.152 234.383,120.626 242.886,120.642 
			244.767,125.176 238.193,132.433 		"/>
		<polygon fill="none" stroke="#000000" stroke-miterlimit="10" points="459.352,287.568 462.087,283.042 470.59,283.057 
			472.471,287.592 465.896,294.848 		"/>
		<polygon fill="none" stroke="#000000" stroke-miterlimit="10" points="224.357,284.139 227.093,279.613 235.596,279.628 
			237.477,284.164 230.903,291.419 		"/>
	</g>
	<g>
		<path fill="none" stroke="#000000" stroke-miterlimit="10" d="M409.111,200.681c0,0-0.771-46.374-59.596-54.486
			c0,0-47.63-3.323-58.922,54.27c0,0-3.263,29.891,20.132,48.865C310.726,249.331,341.605,245.326,409.111,200.681z"/>
		<g>
			<path fill="none" stroke="#000000" stroke-miterlimit="10" d="M398.583,172.701c23.031-13.62,31.68,0.131,31.68,0.131
				c0.935,7.592-7.608,17.493-21.151,27.849c-40.622,31.067-126.315,66.225-135.972,55.394
				c-12.877-14.445,17.66-34.085,17.66-34.085l0.019-9.93c0,0-55.506,28.803-28.982,51.621c0,0,8.897,17.993,66.324-3.782
				c11.096-4.207,24.025-9.898,39.033-17.491c0,0,17.73-8.18,36.476-19.727c21.236-13.077,43.79-30.474,43.389-45.189
				c0,0,11.648-44.26-53.035-10.852L398.583,172.701z"/>
		</g>
		<g>
			<path fill="none" d="M409.077,219.274c0,0-1.732,19.837-29.357,36.165c0,0-21.196,12.058-51.519,4.46
				C328.201,259.899,354.9,250.729,409.077,219.274z"/>
			<path fill="none" stroke="#000000" stroke-miterlimit="10" d="M409.077,219.274c0,0-1.732,19.837-29.357,36.165
				c0,0-21.196,12.058-51.519,4.46C328.201,259.899,354.9,250.729,409.077,219.274z"/>
		</g>
	</g>
	<path fill="none" stroke="#000000" stroke-miterlimit="10" d="M380.495,81.915"/>
</g>
</svg>
